<svg width="100" height="130" viewBox="0 0 100 130" fill="none" xmlns="http://www.w3.org/2000/svg">
<circle cx="5" cy="125" r="5" transform="rotate(-90 5 125)" fill="#C6906F" fill-opacity="0.5"/>
<circle cx="65" cy="125" r="5" transform="rotate(-90 65 125)" fill="#C6906F" fill-opacity="0.5"/>
<circle cx="35" cy="125" r="5" transform="rotate(-90 35 125)" fill="#C6906F" fill-opacity="0.5"/>
<circle cx="95" cy="125" r="5" transform="rotate(-90 95 125)" fill="#C6906F" fill-opacity="0.5"/>
<circle cx="5" cy="95" r="5" transform="rotate(-90 5 95)" fill="#C6906F" fill-opacity="0.5"/>
<circle cx="65" cy="95" r="5" transform="rotate(-90 65 95)" fill="#C6906F" fill-opacity="0.5"/>
<circle cx="35" cy="95" r="5" transform="rotate(-90 35 95)" fill="#C6906F" fill-opacity="0.5"/>
<circle cx="95" cy="95" r="5" transform="rotate(-90 95 95)" fill="#C6906F" fill-opacity="0.5"/>
<circle cx="5" cy="5" r="5" transform="rotate(-90 5 5)" fill="#C6906F" fill-opacity="0.5"/>
<circle cx="65" cy="5" r="5" transform="rotate(-90 65 5)" fill="#C6906F" fill-opacity="0.5"/>
<circle cx="35" cy="5" r="5" transform="rotate(-90 35 5)" fill="#C6906F" fill-opacity="0.5"/>
<circle cx="95" cy="5" r="5" transform="rotate(-90 95 5)" fill="#C6906F" fill-opacity="0.5"/>
<circle cx="5" cy="65" r="5" transform="rotate(-90 5 65)" fill="#C6906F" fill-opacity="0.5"/>
<circle cx="65" cy="65" r="5" transform="rotate(-90 65 65)" fill="#C6906F" fill-opacity="0.5"/>
<circle cx="35" cy="65" r="5" transform="rotate(-90 35 65)" fill="#C6906F" fill-opacity="0.5"/>
<circle cx="95" cy="65" r="5" transform="rotate(-90 95 65)" fill="#C6906F" fill-opacity="0.5"/>
<circle cx="5" cy="35" r="5" transform="rotate(-90 5 35)" fill="#C6906F" fill-opacity="0.5"/>
<circle cx="65" cy="35" r="5" transform="rotate(-90 65 35)" fill="#C6906F" fill-opacity="0.5"/>
<circle cx="35" cy="35" r="5" transform="rotate(-90 35 35)" fill="#C6906F" fill-opacity="0.5"/>
<circle cx="95" cy="35" r="5" transform="rotate(-90 95 35)" fill="#C6906F" fill-opacity="0.5"/>
</svg>
