<svg width="50" height="50" viewBox="0 0 50 50" fill="none" xmlns="http://www.w3.org/2000/svg">
<path fill-rule="evenodd" clip-rule="evenodd" d="M36 14C36 20.0751 31.0751 25 25 25C18.9249 25 14 20.0751 14 14C14 7.92487 18.9249 3 25 3C31.0751 3 36 7.92487 36 14ZM32.1441 26.0425C36.2491 23.602 39 19.1222 39 14C39 6.26801 32.732 0 25 0C17.268 0 11 6.26801 11 14C11 19.1222 13.7509 23.602 17.8559 26.0425C17.0355 26.2871 16.2268 26.5742 15.4329 26.903C12.3998 28.1594 9.64379 30.0009 7.32233 32.3223C5.00086 34.6438 3.15938 37.3998 1.90301 40.4329C0.646644 43.4661 0 46.717 0 50H3C3 47.1109 3.56905 44.2501 4.67465 41.581C5.78025 38.9118 7.40076 36.4865 9.44365 34.4437C11.4865 32.4008 13.9118 30.7803 16.581 29.6747C19.2501 28.569 22.1109 28 25 28C27.8891 28 30.7499 28.569 33.419 29.6747C36.0882 30.7803 38.5135 32.4008 40.5564 34.4436C42.5992 36.4865 44.2197 38.9118 45.3253 41.581C46.431 44.2501 47 47.1109 47 50H50C50 46.717 49.3534 43.4661 48.097 40.4329C46.8406 37.3998 44.9991 34.6438 42.6777 32.3223C40.3562 30.0009 37.6002 28.1594 34.5671 26.903C33.7732 26.5742 32.9645 26.2871 32.1441 26.0425Z" fill="#5F544E"/>
</svg>
