<svg width="50" height="50" viewBox="0 0 50 50" fill="none" xmlns="http://www.w3.org/2000/svg">
<path fill-rule="evenodd" clip-rule="evenodd" d="M32.4179 45.7181C30.1003 46.5479 27.603 47 25 47C22.7372 47 20.5543 46.6584 18.4999 46.0239C18.5507 43.7503 19.3611 42.1186 20.5011 41.0387C21.7308 39.8739 23.4207 39.2793 25.1728 39.2914C28.4549 39.3141 31.8014 41.4493 32.4179 45.7181ZM34.3153 44.9363C33.3619 39.9157 29.2157 37.3194 25.1867 37.2914C22.9865 37.2762 20.7773 38.0223 19.1257 39.5868C17.6889 40.9478 16.7303 42.8751 16.5345 45.3122C15.0367 44.6873 13.6228 43.9015 12.3143 42.9765L12.3631 43.005C17.7988 33.7149 18.7504 24.5668 17.8564 17.6785C17.4101 14.2397 16.5006 11.3389 15.4379 9.25003C14.9078 8.2081 14.3239 7.33717 13.7147 6.70065C13.5952 6.57576 13.4699 6.45493 13.3392 6.34111C15.8843 4.7472 18.7788 3.65957 21.8816 3.2193C21.4813 10.3125 21.8794 19.5048 24.7784 26.6106C26.3601 30.4878 28.7222 33.8311 32.1918 35.8255C35.1129 37.5045 38.7169 38.169 43.1012 37.5074C40.8924 40.698 37.8617 43.2764 34.3153 44.9363ZM44.491 35.2127C39.6482 36.2948 35.9813 35.6968 33.1885 34.0915C30.232 32.3921 28.1091 29.4803 26.6302 25.8552C23.8547 19.0518 23.4736 10.0449 23.8963 3.02721C24.2619 3.00914 24.6299 3 25 3C26.1709 3 27.3205 3.09148 28.442 3.26768C28.0548 9.14972 28.3207 16.9586 30.7535 22.8379C32.0359 25.9373 33.9614 28.5983 36.8079 30.0986C39.3258 31.4258 42.434 31.7767 46.2022 30.8916C45.783 32.4037 45.2063 33.8503 44.491 35.2127ZM46.6905 28.6982C46.894 27.4958 47 26.2603 47 25C47 24.4407 46.9791 23.8863 46.9381 23.3375C44.743 24.2097 42.8777 24.3263 41.3275 23.6487C39.5575 22.8749 38.4986 21.1949 37.8244 19.2712C37.146 17.3352 36.7907 14.9652 36.5539 12.5249C36.4086 11.0281 36.3039 9.4495 36.2013 7.9016C36.1584 7.25442 36.1158 6.61259 36.0708 5.98435C34.3258 4.96624 32.4281 4.18144 30.4202 3.67272C30.067 9.4088 30.3794 16.7031 32.6015 22.0733C33.7778 24.916 35.4481 27.1211 37.7405 28.3294C39.9196 29.478 42.8141 29.8059 46.6905 28.6982ZM38.1711 7.37673C38.1811 7.52631 38.1909 7.67585 38.2008 7.82534L38.2009 7.82625L38.2009 7.8266C38.3012 9.34348 38.4011 10.8544 38.5445 12.3317C38.7781 14.7387 39.1164 16.9105 39.7119 18.6097C40.3117 20.3211 41.107 21.3696 42.1286 21.8161C43.0863 22.2348 44.511 22.2401 46.6858 21.2742C45.7195 15.6091 42.5871 10.6824 38.1711 7.37673ZM11.5958 7.55362C9.70804 9.00618 8.06268 10.7583 6.73086 12.7388C7.62971 13.0502 8.46123 13.6361 9.16281 14.4069C10.3246 15.6835 11.1919 17.5211 11.5508 19.7336C12.2573 24.0901 11.0102 29.9448 6.08487 36.2413C7.3321 38.3355 8.91722 40.2049 10.765 41.7745C15.8421 32.9797 16.7087 24.3749 15.873 17.9359C15.451 14.684 14.5979 12.0097 13.6553 10.1569C13.1828 9.22799 12.7033 8.53642 12.2698 8.08354C11.9758 7.77627 11.7478 7.62482 11.5958 7.55362ZM5.05382 34.2941C9.24491 28.6322 10.1518 23.6008 9.57655 20.0538C9.26916 18.1584 8.54302 16.6973 7.68367 15.7531C7.01703 15.0206 6.30607 14.6301 5.65128 14.5209C3.96037 17.6364 3 21.206 3 25C3 28.3214 3.73601 31.4708 5.05382 34.2941ZM50 25C50 38.8071 38.8071 50 25 50C11.1929 50 0 38.8071 0 25C0 11.1929 11.1929 0 25 0C38.8071 0 50 11.1929 50 25Z" fill="#5F544E"/>
</svg>
