<svg width="180" height="52" viewBox="0 0 180 52" fill="none" xmlns="http://www.w3.org/2000/svg">
<path d="M179.222 7.40129C179.222 10.528 176.792 12.9686 173.646 12.9686C170.501 12.9686 168.07 10.528 168.07 7.40129C168.07 4.27454 170.501 1.83398 173.646 1.83398C176.792 1.83398 179.222 4.27454 179.222 7.40129ZM168.942 7.40129C168.942 10.0682 170.947 12.1763 173.646 12.1763C176.346 12.1763 178.351 10.0682 178.351 7.40129C178.351 4.73436 176.346 2.62628 173.646 2.62628C170.947 2.62628 168.942 4.73436 168.942 7.40129ZM172.421 10.62H171.627V4.18258H174.1C175.552 4.18258 176.197 4.81218 176.197 5.96525C176.197 7.10418 175.446 7.61352 174.575 7.76207L176.495 10.62H175.566L173.753 7.76207H172.421V10.62ZM173.469 7.08296C174.447 7.08296 175.404 7.05466 175.404 5.95818C175.404 5.05977 174.652 4.84755 173.873 4.84755H172.421V7.07588H173.469V7.08296Z" fill="#FAF7F4"/>
<path d="M24.1186 26.6064C22.156 29.4502 22.8787 32.2586 24.6075 34.5365L24.1186 26.6064Z" fill="#FAF7F4"/>
<path fill-rule="evenodd" clip-rule="evenodd" d="M87.7119 26.5354C82.178 29.0749 74.9578 35.8162 72.57 34.8471C69.5799 31.4871 79.0391 29.5701 81.5403 24.1799C82.8512 21.3433 80.272 21.1169 76.382 21.2725C75.6451 21.2442 74.9295 21.1381 74.2351 20.9471C71.0466 20.0983 68.3045 17.6508 66.2143 14.4039L61.9558 18.436C63.7485 20.0771 65.697 21.0462 63.1533 23.5078C60.9851 25.5239 59.3979 28.417 56.5779 29.6267C53.4886 30.9494 51.122 28.9546 48.805 24.7741C42.754 27.0872 36.7525 32.152 30.8644 31.19C28.3915 30.7868 28.5474 27.4833 30.8644 25.5168C34.9386 22.0648 39.4592 18.8604 50.6685 18.6482C51.5046 18.634 50.7394 16.3351 49.4711 15.5145C41.8753 17.2263 31.9626 15.8965 24.3457 26.3232L24.1118 26.5991C24.0481 26.6981 23.9914 26.7901 23.9276 26.8891C22.8294 27.0235 21.5681 26.6415 21.2422 27.455C22.2483 28.0987 22.9002 28.5444 23.0207 29.1739C22.6876 31.1051 23.3962 32.9513 24.5937 34.5358C24.7708 34.741 24.9621 34.9249 25.1605 35.1017C29.4331 39.0065 37.5248 37.6554 44.164 32.3076C46.1054 34.6985 48.7838 36.6438 52.4612 35.9647C58.5335 34.8471 60.5316 28.799 66.4339 23.8757C69.0485 23.0551 71.5922 26.111 70.2459 27.2357C65.612 31.4163 63.8406 34.6561 68.2266 37.3088C74.6036 41.164 79.0179 33.3757 86.4861 30.5462L86.5215 30.5958L86.4435 37.2805L93.2457 36.0143C93.2457 33.8497 93.2457 30.9707 93.2457 28.8061C95.5485 30.3623 98.9283 34.6985 100.14 36.3043C100.43 36.6863 101.38 37.4998 101.578 37.62C104.25 39.2116 107.573 39.0489 110.513 36.1133C112.426 34.2034 112.83 32.6825 115.069 31.2607L114.396 30.143C111.484 31.7063 107.615 35.4201 105.355 33.4253C103.038 31.3951 100.494 28.9476 98.1772 25.8139C98.2481 24.767 98.404 23.5008 100.048 22.3831C102.287 21.3362 104.682 21.1169 106.177 23.1259C107.594 22.0082 109.018 20.8906 110.435 19.8436C105.504 14.0997 100.87 18.4289 93.5433 22.9773V2.76758L87.7119 3.58813C87.7119 13.6046 87.7119 20.9047 87.7119 26.493" fill="#FAF7F4"/>
<path fill-rule="evenodd" clip-rule="evenodd" d="M179.923 28.3325C180.05 27.9506 180.022 27.5332 179.817 27.1724C179.611 26.8117 179.264 26.5782 178.867 26.4934C173.333 29.0328 166.141 36.1632 163.917 34.8475C160.062 32.2585 170.386 29.5704 172.887 24.1802C174.198 21.3437 171.619 21.1173 167.729 21.2729C166.992 21.2446 166.276 21.1385 165.582 20.9475C162.393 20.0987 159.651 17.6512 157.561 14.4043L153.302 18.4363C155.095 20.0775 157.037 21.0466 154.5 23.5082C152.332 25.5243 150.745 28.4174 147.924 29.627C144.835 30.9498 142.469 28.955 140.152 24.7744C134.101 27.0876 128.099 32.1524 122.211 31.1903C119.738 30.7871 119.894 27.4837 122.211 25.5172C126.285 22.0652 130.806 18.8608 142.015 18.6486C142.851 18.6344 142.086 16.3354 140.818 15.5149C133.222 17.2267 123.309 15.8969 115.692 26.3236L115.458 26.5995C113.503 29.4431 114.218 32.2514 115.947 34.5292C116.124 34.7343 116.316 34.9182 116.507 35.0951C120.78 38.9998 128.871 37.6487 135.511 32.3009C137.452 34.6918 140.13 36.6371 143.808 35.9581C149.88 34.8404 151.878 28.7923 157.781 23.869C160.395 23.0484 162.939 26.1043 161.593 27.229C156.959 31.4096 155.187 34.6494 159.573 37.3021C165.971 41.1643 173.014 32.69 179.923 28.3325Z" fill="#FAF7F4"/>
<path d="M15.949 1.37423L8.14075 10.8884C8.14075 10.8884 6.05759 12.3386 7.82898 13.9938L17.8196 25.3755C17.8196 25.3755 19.6902 27.5472 16.9906 29.9239L2.93994 45.656L2.00465 46.4836L1.06935 47C1.06935 47 -1.113 46.5826 0.757588 44.6232L11.7827 31.4802C11.7827 31.4802 13.3415 29.8249 11.3647 28.0635L1.27483 17.8207C1.27483 17.8207 -0.390273 15.7481 2.31641 13.7816L14.3902 0.129246C14.3902 0.129246 15.949 -0.592278 15.949 1.37423Z" fill="#FAF7F4"/>
</svg>
