<svg width="52" height="60" viewBox="0 0 52 60" fill="none" xmlns="http://www.w3.org/2000/svg">
<path d="M43.3333 60C40.95 60 38.909 59.16 37.2103 57.48C35.5117 55.8 34.6638 53.7829 34.6667 51.4286V8.57143C34.6667 6.21429 35.516 4.19572 37.2147 2.51572C38.9133 0.835721 40.9529 -0.00284987 43.3333 7.27626e-06C45.7167 7.27626e-06 47.7577 0.840006 49.4563 2.52001C51.155 4.20001 52.0029 6.21715 52 8.57143V51.4286C52 53.7857 51.1507 55.8043 49.452 57.4843C47.7533 59.1643 45.7138 60.0029 43.3333 60ZM8.66667 60C6.28334 60 4.24234 59.16 2.54367 57.48C0.845007 55.8 -0.00288153 53.7829 7.3571e-06 51.4286V8.57143C7.3571e-06 6.21429 0.84934 4.19572 2.54801 2.51572C4.24667 0.835721 6.28623 -0.00284987 8.66667 7.27626e-06C11.05 7.27626e-06 13.091 0.840006 14.7897 2.52001C16.4883 4.20001 17.3362 6.21715 17.3333 8.57143V51.4286C17.3333 53.7857 16.484 55.8043 14.7853 57.4843C13.0867 59.1643 11.0471 60.0029 8.66667 60Z" fill="#FAF7F4"/>
</svg>
