<svg width="61" height="70" viewBox="0 0 61 70" fill="none" xmlns="http://www.w3.org/2000/svg">
<path d="M5 59.6363C5.01646 60.5993 5.2943 61.5394 5.80333 62.3543C6.31236 63.1692 7.03311 63.8278 7.88725 64.2585C8.74017 64.7446 9.70319 65 10.6828 65C11.6625 65 12.6255 64.7446 13.4784 64.2585L53.1209 39.5298C53.9834 39.1106 54.7112 38.4545 55.2205 37.6369C55.7298 36.8192 56 35.8732 56 34.9076C56 33.9419 55.7298 32.9959 55.2205 32.1782C54.7112 31.3606 53.9834 30.7045 53.1209 30.2854L13.4784 5.74148C12.6255 5.25542 11.6625 5 10.6828 5C9.70319 5 8.74017 5.25542 7.88725 5.74148C7.03311 6.17222 6.31236 6.83083 5.80333 7.64573C5.2943 8.46064 5.01646 9.40068 5 10.3637V59.6363Z" stroke="#FAF7F4" stroke-width="9" stroke-linecap="round" stroke-linejoin="round"/>
</svg>
