<svg width="420" height="23" viewBox="0 0 420 23" fill="none" xmlns="http://www.w3.org/2000/svg">
<path d="M0 15.5815L6.34229 15.1888C6.47963 16.207 6.75922 16.9828 7.18106 17.5161C7.86777 18.3792 8.84879 18.8107 10.1241 18.8107C11.0757 18.8107 11.8066 18.5925 12.3167 18.1562C12.8366 17.7101 13.0966 17.1961 13.0966 16.6143C13.0966 16.0616 12.8514 15.567 12.3608 15.1306C11.8703 14.6942 10.7324 14.2821 8.9469 13.8942C6.02346 13.2445 3.93879 12.3815 2.6929 11.3051C1.43719 10.2287 0.809341 8.85652 0.809341 7.1886C0.809341 6.09282 1.12817 5.06006 1.76583 4.09034C2.41331 3.11092 3.37961 2.34484 4.66475 1.7921C5.95969 1.22966 7.73043 0.948443 9.97696 0.948443C12.7336 0.948443 14.833 1.45755 16.2751 2.47575C17.727 3.48426 18.5903 5.094 18.865 7.30497L12.5816 7.66861C12.4148 6.70859 12.0616 6.01039 11.5221 5.57401C10.9923 5.13764 10.2566 4.91945 9.31478 4.91945C8.53977 4.91945 7.95607 5.08431 7.56366 5.41401C7.17125 5.73402 6.97505 6.12676 6.97505 6.59222C6.97505 6.93162 7.13691 7.23709 7.46065 7.50861C7.77458 7.78983 8.52015 8.05165 9.69738 8.29408C12.611 8.91471 14.6957 9.54502 15.9514 10.185C17.2169 10.8154 18.1341 11.6008 18.7031 12.5415C19.2819 13.4821 19.5713 14.5342 19.5713 15.6979C19.5713 17.0652 19.1887 18.3259 18.4235 19.4798C17.6583 20.6338 16.589 21.5114 15.2156 22.1126C13.8422 22.7041 12.1107 22.9999 10.0211 22.9999C6.3521 22.9999 3.81126 22.3017 2.39859 20.9053C0.985924 19.5089 0.186394 17.7343 0 15.5815Z" fill="white"/>
<path d="M23.8158 1.31209H34.8964C37.3097 1.31209 39.1148 1.87938 40.3116 3.01395C41.5183 4.14852 42.1216 5.76311 42.1216 7.85771C42.1216 10.0105 41.4643 11.693 40.1498 12.9051C38.845 14.1173 36.8487 14.7233 34.1607 14.7233H30.5113V22.6363H23.8158V1.31209ZM30.5113 10.4032H32.1447C33.4298 10.4032 34.3323 10.185 34.8523 9.74867C35.3722 9.3026 35.6322 8.73531 35.6322 8.0468C35.6322 7.3777 35.4066 6.81041 34.9553 6.34494C34.504 5.87948 33.6554 5.64674 32.4095 5.64674H30.5113V10.4032Z" fill="white"/>
<path d="M46.528 1.31209H53.194V17.3852H63.5977V22.6363H46.528V1.31209Z" fill="white"/>
<path d="M63.0303 1.31209H70.4321L74.7878 8.51227L79.1435 1.31209H86.5012L78.1135 13.7051V22.6363H71.4327V13.7051L63.0303 1.31209Z" fill="white"/>
<path d="M101.355 6.7499C101.355 7.94266 101.052 9.05396 100.446 10.0838C99.8456 11.1136 99.0245 11.9253 97.9826 12.5188C96.9408 13.1122 95.8165 13.409 94.6099 13.409C93.4091 13.409 92.2878 13.1122 91.246 12.5188C90.2041 11.9253 89.3801 11.1136 88.7738 10.0838C88.1734 9.05396 87.8732 7.94266 87.8732 6.7499C87.8732 5.56296 88.1734 4.45457 88.7738 3.42472C89.3801 2.38906 90.2041 1.57449 91.246 0.981025C92.2878 0.387555 93.4091 0.0908203 94.6099 0.0908203C95.8165 0.0908203 96.9408 0.387555 97.9826 0.981025C99.0245 1.57449 99.8456 2.38906 100.446 3.42472C101.052 4.45457 101.355 5.56296 101.355 6.7499ZM100.049 6.7499C100.049 5.26622 99.516 4.00074 98.4506 2.95344C97.3911 1.90032 96.1108 1.37376 94.6099 1.37376C93.1089 1.37376 91.8258 1.90032 90.7604 2.95344C89.7009 4.00074 89.1711 5.26622 89.1711 6.7499C89.1711 8.23357 89.7009 9.50197 90.7604 10.5551C91.8258 11.6024 93.1089 12.126 94.6099 12.126C96.1108 12.126 97.3911 11.6024 98.4506 10.5551C99.516 9.50197 100.049 8.23357 100.049 6.7499ZM91.555 3.18908H94.7776C95.69 3.18908 96.3492 3.37236 96.7554 3.73891C97.1674 4.09965 97.3734 4.58548 97.3734 5.1964C97.3734 5.67351 97.2174 6.08661 96.9055 6.43571C96.5935 6.78481 96.102 7.03791 95.431 7.195C95.7076 7.29973 95.9107 7.41028 96.0402 7.52665C96.2227 7.68956 96.414 7.93102 96.6141 8.25103C96.6259 8.2743 97.0144 8.96087 97.7796 10.3107H95.6606C94.9719 8.95505 94.5098 8.1463 94.2744 7.88447C94.0389 7.61683 93.8035 7.48301 93.568 7.48301C93.5151 7.48301 93.4415 7.49174 93.3473 7.50919V10.3107H91.555V3.18908ZM93.3473 6.20879H94.1243C94.6423 6.20879 95.0072 6.12734 95.2191 5.96442C95.431 5.79569 95.5369 5.58041 95.5369 5.31859C95.5369 5.05677 95.4339 4.8444 95.2279 4.68148C95.0278 4.51275 94.6835 4.42839 94.1949 4.42839H93.3473V6.20879Z" fill="white"/>
<path d="M122.182 1.31209H133.273C135.688 1.31209 137.495 1.87938 138.693 3.01395C139.901 4.14852 140.504 5.76311 140.504 7.85771C140.504 10.0105 139.847 11.693 138.531 12.9051C137.225 14.1173 135.227 14.7233 132.536 14.7233H128.883V22.6363H122.182V1.31209ZM128.883 10.4032H130.518C131.805 10.4032 132.708 10.185 133.228 9.74867C133.749 9.3026 134.009 8.73531 134.009 8.0468C134.009 7.3777 133.783 6.81041 133.331 6.34494C132.88 5.87948 132.03 5.64674 130.783 5.64674H128.883V10.4032Z" fill="white"/>
<path d="M145.554 1.31209H155.938V5.86493H145.554V9.25411H155.938V13.6033H145.554V17.8071H155.938V22.6363H145.554V1.31209Z" fill="white"/>
<path d="M161.615 1.31209H178.112V5.89402H168.317V9.61775H176.683V13.9233H168.317V22.6363H161.615V1.31209Z" fill="white"/>
<path d="M181.771 11.9887C181.771 8.50742 182.753 5.79705 184.717 3.85761C186.681 1.91816 189.415 0.948443 192.921 0.948443C196.515 0.948443 199.284 1.90362 201.228 3.81397C203.172 5.71462 204.144 8.38136 204.144 11.8142C204.144 14.3064 203.717 16.3525 202.863 17.9525C202.018 19.5429 200.791 20.7841 199.181 21.6762C197.58 22.5587 195.582 22.9999 193.186 22.9999C190.751 22.9999 188.733 22.6169 187.132 21.8508C185.542 21.0847 184.25 19.8726 183.259 18.2143C182.267 16.5561 181.771 14.4809 181.771 11.9887ZM188.443 12.0178C188.443 14.1706 188.846 15.7173 189.651 16.6579C190.466 17.5986 191.571 18.0689 192.965 18.0689C194.399 18.0689 195.508 17.6083 196.294 16.687C197.079 15.7658 197.472 14.1124 197.472 11.7269C197.472 9.71957 197.06 8.25529 196.235 7.33406C195.42 6.40313 194.31 5.93766 192.906 5.93766C191.561 5.93766 190.481 6.40798 189.666 7.34861C188.851 8.28924 188.443 9.84564 188.443 12.0178Z" fill="white"/>
<path d="M208.731 22.6363V1.31209H219.852C221.914 1.31209 223.49 1.48664 224.58 1.83574C225.67 2.18484 226.549 2.83455 227.216 3.78488C227.884 4.72551 228.218 5.87463 228.218 7.23224C228.218 8.4153 227.963 9.43836 227.452 10.3014C226.941 11.1548 226.239 11.8481 225.346 12.3815C224.776 12.7209 223.996 13.0021 223.004 13.2251C223.799 13.4869 224.379 13.7488 224.742 14.0106C224.987 14.1851 225.341 14.5585 225.802 15.1306C226.274 15.7028 226.588 16.144 226.745 16.4543L229.971 22.6363H222.429L218.865 16.1197C218.413 15.2761 218.011 14.7282 217.657 14.4761C217.176 14.1464 216.631 13.9815 216.022 13.9815H215.433V22.6363H208.731ZM215.433 9.95231H218.246C218.551 9.95231 219.14 9.85534 220.014 9.66139C220.456 9.57412 220.814 9.35108 221.089 8.99228C221.374 8.63349 221.516 8.22135 221.516 7.75589C221.516 7.06739 221.295 6.53889 220.853 6.17039C220.412 5.8019 219.582 5.61765 218.364 5.61765H215.433V9.95231Z" fill="white"/>
<path d="M232.952 1.31209H241.731L245.118 14.287L248.491 1.31209H257.24V22.6363H251.791V6.37403L247.563 22.6363H242.629L238.417 6.37403V22.6363H232.952V1.31209Z" fill="white"/>
<path d="M274.215 6.7499C274.215 7.94266 273.911 9.05396 273.304 10.0838C272.703 11.1136 271.882 11.9253 270.839 12.5188C269.796 13.1122 268.671 13.409 267.463 13.409C266.261 13.409 265.139 13.1122 264.096 12.5188C263.053 11.9253 262.228 11.1136 261.621 10.0838C261.02 9.05396 260.72 7.94266 260.72 6.7499C260.72 5.56296 261.02 4.45457 261.621 3.42472C262.228 2.38906 263.053 1.57449 264.096 0.981025C265.139 0.387555 266.261 0.0908203 267.463 0.0908203C268.671 0.0908203 269.796 0.387555 270.839 0.981025C271.882 1.57449 272.703 2.38906 273.304 3.42472C273.911 4.45457 274.215 5.56296 274.215 6.7499ZM272.907 6.7499C272.907 5.26622 272.374 4.00074 271.307 2.95344C270.247 1.90032 268.965 1.37376 267.463 1.37376C265.961 1.37376 264.676 1.90032 263.61 2.95344C262.549 4.00074 262.019 5.26622 262.019 6.7499C262.019 8.23357 262.549 9.50197 263.61 10.5551C264.676 11.6024 265.961 12.126 267.463 12.126C268.965 12.126 270.247 11.6024 271.307 10.5551C272.374 9.50197 272.907 8.23357 272.907 6.7499ZM264.405 3.18908H267.631C268.544 3.18908 269.204 3.37236 269.61 3.73891C270.023 4.09965 270.229 4.58548 270.229 5.1964C270.229 5.67351 270.073 6.08661 269.761 6.43571C269.448 6.78481 268.956 7.03791 268.285 7.195C268.562 7.29973 268.765 7.41028 268.895 7.52665C269.077 7.68956 269.269 7.93102 269.469 8.25103C269.481 8.2743 269.87 8.96087 270.636 10.3107H268.515C267.825 8.95505 267.363 8.1463 267.127 7.88447C266.891 7.61683 266.656 7.48301 266.42 7.48301C266.367 7.48301 266.293 7.49174 266.199 7.50919V10.3107H264.405V3.18908ZM266.199 6.20879H266.977C267.495 6.20879 267.861 6.12734 268.073 5.96442C268.285 5.79569 268.391 5.58041 268.391 5.31859C268.391 5.05677 268.288 4.8444 268.082 4.68148C267.881 4.51275 267.537 4.42839 267.048 4.42839H266.199V6.20879Z" fill="white"/>
<path d="M295.042 15.293L301.548 14.885C301.689 15.9428 301.976 16.7488 302.409 17.3029C303.113 18.1995 304.12 18.6478 305.428 18.6478C306.404 18.6478 307.154 18.4211 307.677 17.9678C308.211 17.5043 308.478 16.9704 308.478 16.3659C308.478 15.7917 308.226 15.2779 307.723 14.8246C307.22 14.3712 306.052 13.9431 304.22 13.5401C301.221 12.8651 299.082 11.9685 297.804 10.8502C296.516 9.73198 295.872 8.30646 295.872 6.57367C295.872 5.43527 296.199 4.36235 296.853 3.35491C297.517 2.3374 298.509 1.54153 299.827 0.967289C301.156 0.382977 302.972 0.0908203 305.277 0.0908203C308.105 0.0908203 310.259 0.619724 311.738 1.67753C313.228 2.72527 314.114 4.39761 314.396 6.69456L307.949 7.07235C307.778 6.07499 307.416 5.34964 306.862 4.89629C306.319 4.44294 305.564 4.21627 304.598 4.21627C303.803 4.21627 303.204 4.38753 302.801 4.73006C302.399 5.06252 302.197 5.47053 302.197 5.9541C302.197 6.3067 302.363 6.62404 302.696 6.90612C303.018 7.19828 303.783 7.47029 304.99 7.72215C307.979 8.36691 310.118 9.02174 311.406 9.68665C312.705 10.3415 313.646 11.1575 314.229 12.1347C314.823 13.1119 315.12 14.205 315.12 15.4139C315.12 16.8344 314.728 18.1441 313.943 19.3429C313.158 20.5418 312.061 21.4535 310.652 22.0781C309.242 22.6926 307.466 22.9999 305.322 22.9999C301.558 22.9999 298.952 22.2746 297.502 20.8238C296.053 19.3731 295.233 17.5295 295.042 15.293Z" fill="white"/>
<path d="M333.122 18.9651H325.332L324.26 22.6221H317.271L325.589 0.468609H333.047L341.365 22.6221H334.209L333.122 18.9651ZM331.688 14.1748L329.242 6.21099L326.812 14.1748H331.688Z" fill="white"/>
<path d="M342.911 12.1649H351.849V16.9251H342.911V12.1649Z" fill="white"/>
<path d="M355.69 0.468609H367.058C369.534 0.468609 371.385 1.05796 372.613 2.23666C373.851 3.41536 374.47 5.09274 374.47 7.2688C374.47 9.50531 373.796 11.2532 372.447 12.5125C371.109 13.7718 369.061 14.4014 366.303 14.4014H362.559V22.6221H355.69V0.468609ZM362.559 9.91332H364.235C365.553 9.91332 366.479 9.68665 367.012 9.2333C367.546 8.76988 367.813 8.18053 367.813 7.46525C367.813 6.77012 367.581 6.18077 367.118 5.6972C366.655 5.21363 365.785 4.97185 364.506 4.97185H362.559V9.91332Z" fill="white"/>
<path d="M378.991 0.468609H385.83V17.1669H396.503V22.6221H378.991V0.468609Z" fill="white"/>
<path d="M395.921 0.468609H403.515L407.983 7.94882L412.452 0.468609H420L411.395 13.3436V22.6221H404.541V13.3436L395.921 0.468609Z" fill="white"/>
</svg>
